<?xml version="1.0" encoding="utf-8"?>
<!-- Generator: Adobe Illustrator 25.4.1, SVG Export Plug-In . SVG Version: 6.00 Build 0)  -->
<svg version="1.1" id="Capa_1" xmlns="http://www.w3.org/2000/svg" xmlns:xlink="http://www.w3.org/1999/xlink" x="0px" y="0px"
	 viewBox="0 0 48 48" style="enable-background:new 0 0 48 48;" xml:space="preserve">
<style type="text/css">
	.st0{fill:#FF314E;}
</style>
<path class="st0" d="M40.5,9.1c-3-1.4-6.3-2.4-9.7-3c-0.1,0-0.1,0-0.2,0.1c-0.4,0.7-0.9,1.7-1.2,2.5c-3.7-0.5-7.3-0.5-10.9,0
	c-0.3-0.8-0.8-1.7-1.2-2.5c0-0.1-0.1-0.1-0.2-0.1c-3.4,0.6-6.6,1.6-9.7,3c0,0,0,0-0.1,0.1c-6.2,9.2-7.9,18.2-7,27.1
	c0,0,0,0.1,0.1,0.1c4.1,3,8,4.8,11.9,6c0.1,0,0.1,0,0.2-0.1c0.9-1.2,1.7-2.6,2.4-3.9c0-0.1,0-0.2-0.1-0.2c-1.3-0.5-2.5-1.1-3.7-1.8
	c-0.1-0.1-0.1-0.2,0-0.3c0.2-0.2,0.5-0.4,0.7-0.6c0,0,0.1,0,0.2,0c7.8,3.6,16.2,3.6,23.9,0c0.1,0,0.1,0,0.2,0
	c0.2,0.2,0.5,0.4,0.7,0.6c0.1,0.1,0.1,0.2,0,0.3c-1.2,0.7-2.4,1.3-3.7,1.8c-0.1,0-0.1,0.1-0.1,0.2c0.7,1.4,1.5,2.7,2.4,3.9
	c0,0.1,0.1,0.1,0.2,0.1c3.9-1.2,7.8-3,11.9-6c0,0,0.1-0.1,0.1-0.1C48.6,25.9,45.9,17,40.5,9.1C40.5,9.1,40.5,9.1,40.5,9.1z
	 M16.1,30.8c-2.3,0-4.3-2.1-4.3-4.8s1.9-4.8,4.3-4.8c2.4,0,4.3,2.2,4.3,4.8C20.4,28.6,18.5,30.8,16.1,30.8z M31.9,30.8
	c-2.3,0-4.3-2.1-4.3-4.8s1.9-4.8,4.3-4.8c2.4,0,4.3,2.2,4.3,4.8C36.2,28.6,34.3,30.8,31.9,30.8z"/>
</svg>
