<?xml version="1.0" encoding="utf-8"?>
<!-- Generator: Adobe Illustrator 25.4.1, SVG Export Plug-In . SVG Version: 6.00 Build 0)  -->
<svg version="1.1" id="Capa_1" xmlns="http://www.w3.org/2000/svg" xmlns:xlink="http://www.w3.org/1999/xlink" x="0px" y="0px"
	 viewBox="0 0 48 48" style="enable-background:new 0 0 48 48;" xml:space="preserve">
<style type="text/css">
	.st0{fill:#FF314E;}
</style>
<path class="st0" d="M13.5,0.4C6.3,0.4,0.4,6.3,0.4,13.5v21c0,7.2,5.9,13.1,13.1,13.1h21c7.2,0,13.1-5.9,13.1-13.1v-21
	c0-7.2-5.9-13.1-13.1-13.1H13.5z M39.7,5.6c1.4,0,2.6,1.2,2.6,2.6s-1.2,2.6-2.6,2.6c-1.4,0-2.6-1.2-2.6-2.6S38.3,5.6,39.7,5.6z
	 M24,10.9c7.2,0,13.1,5.9,13.1,13.1S31.2,37.1,24,37.1S10.9,31.2,10.9,24S16.8,10.9,24,10.9z M24,16.1c-4.3,0-7.9,3.5-7.9,7.9
	s3.5,7.9,7.9,7.9s7.9-3.5,7.9-7.9S28.3,16.1,24,16.1z"/>
</svg>
