<?xml version="1.0" encoding="utf-8"?>
<!-- Generator: Adobe Illustrator 25.4.1, SVG Export Plug-In . SVG Version: 6.00 Build 0)  -->
<svg version="1.1" id="Capa_1" xmlns="http://www.w3.org/2000/svg" xmlns:xlink="http://www.w3.org/1999/xlink" x="0px" y="0px"
	 viewBox="0 0 48 48" style="enable-background:new 0 0 48 48;" xml:space="preserve">
<style type="text/css">
	.st0{fill:#FF314E;}
</style>
<path class="st0" d="M16.2,6.4c-5.4,0-9.8,4.4-9.8,9.8v15.7c0,5.4,4.4,9.8,9.8,9.8h15.7c5.4,0,9.8-4.4,9.8-9.8V16.2
	c0-5.4-4.4-9.8-9.8-9.8H16.2z M35.7,10.3c1.1,0,2,0.9,2,2s-0.9,2-2,2c-1.1,0-2-0.9-2-2S34.7,10.3,35.7,10.3z M24,14.2
	c5.4,0,9.8,4.4,9.8,9.8s-4.4,9.8-9.8,9.8s-9.8-4.4-9.8-9.8S18.6,14.2,24,14.2z M24,18.1c-3.2,0-5.9,2.6-5.9,5.9s2.6,5.9,5.9,5.9
	s5.9-2.6,5.9-5.9S27.2,18.1,24,18.1z"/>
</svg>
