<?xml version="1.0" encoding="utf-8"?>
<!-- Generator: Adobe Illustrator 25.4.1, SVG Export Plug-In . SVG Version: 6.00 Build 0)  -->
<svg version="1.1" id="Capa_1" xmlns="http://www.w3.org/2000/svg" xmlns:xlink="http://www.w3.org/1999/xlink" x="0px" y="0px"
	 viewBox="0 0 48 48" style="enable-background:new 0 0 48 48;" xml:space="preserve">
<style type="text/css">
	.st0{fill:#FF314E;}
</style>
<path class="st0" d="M46.5,12.4c-0.5-2.5-2.5-4.3-4.9-4.7c-4-0.6-10.3-1.3-17.6-1.3c-7.3,0-13.7,0.7-17.6,1.3
	C3.9,8,1.9,9.9,1.4,12.4C1,15.1,0.5,19.1,0.5,24S1,32.9,1.4,35.6c0.5,2.5,2.5,4.3,4.9,4.7c4,0.6,10.5,1.3,17.6,1.3
	c7.3,0,13.7-0.7,17.6-1.3c2.5-0.4,4.5-2.2,4.9-4.7c0.5-2.7,0.9-6.7,1.1-11.6C47.6,19.1,47,15.1,46.5,12.4z M19.3,32.2V15.8L33.4,24
	L19.3,32.2z"/>
</svg>
